<svg width="186" height="70" viewBox="0 0 186 70" fill="none" xmlns="http://www.w3.org/2000/svg">
<path d="M16.536 15.776C19.0533 15.776 21.2507 16.288 23.128 17.312C25.048 18.336 26.52 19.68 27.544 21.344V16.288H38.488V51.936C38.488 55.2213 37.8267 58.1867 36.504 60.832C35.224 63.52 33.24 65.6533 30.552 67.232C27.9067 68.8107 24.6 69.6 20.632 69.6C15.3413 69.6 11.0533 68.3413 7.768 65.824C4.48267 63.3493 2.60533 59.9787 2.136 55.712H12.952C13.2933 57.0773 14.104 58.144 15.384 58.912C16.664 59.7227 18.2427 60.128 20.12 60.128C22.3813 60.128 24.1733 59.4667 25.496 58.144C26.8613 56.864 27.544 54.7947 27.544 51.936V46.88C26.4773 48.544 25.0053 49.9093 23.128 50.976C21.2507 52 19.0533 52.512 16.536 52.512C13.592 52.512 10.9253 51.7653 8.536 50.272C6.14667 48.736 4.248 46.5813 2.84 43.808C1.47467 40.992 0.792 37.7493 0.792 34.08C0.792 30.4107 1.47467 27.1893 2.84 24.416C4.248 21.6427 6.14667 19.5093 8.536 18.016C10.9253 16.5227 13.592 15.776 16.536 15.776ZM27.544 34.144C27.544 31.4133 26.776 29.2587 25.24 27.68C23.7467 26.1013 21.912 25.312 19.736 25.312C17.56 25.312 15.704 26.1013 14.168 27.68C12.6747 29.216 11.928 31.3493 11.928 34.08C11.928 36.8107 12.6747 38.9867 14.168 40.608C15.704 42.1867 17.56 42.976 19.736 42.976C21.912 42.976 23.7467 42.1867 25.24 40.608C26.776 39.0293 27.544 36.8747 27.544 34.144ZM51.9095 12.576C49.9895 12.576 48.4108 12.0213 47.1735 10.912C45.9788 9.76 45.3815 8.352 45.3815 6.688C45.3815 4.98133 45.9788 3.57333 47.1735 2.464C48.4108 1.312 49.9895 0.735996 51.9095 0.735996C53.7868 0.735996 55.3228 1.312 56.5175 2.464C57.7548 3.57333 58.3735 4.98133 58.3735 6.688C58.3735 8.352 57.7548 9.76 56.5175 10.912C55.3228 12.0213 53.7868 12.576 51.9095 12.576ZM57.3495 16.288V52H46.4055V16.288H57.3495ZM63.1045 34.08C63.1045 30.4107 63.7872 27.1893 65.1525 24.416C66.5605 21.6427 68.4592 19.5093 70.8485 18.016C73.2378 16.5227 75.9045 15.776 78.8485 15.776C81.1952 15.776 83.3285 16.2667 85.2485 17.248C87.2112 18.2293 88.7472 19.552 89.8565 21.216V4.64H100.801V52H89.8565V46.88C88.8325 48.5867 87.3605 49.952 85.4405 50.976C83.5632 52 81.3658 52.512 78.8485 52.512C75.9045 52.512 73.2378 51.7653 70.8485 50.272C68.4592 48.736 66.5605 46.5813 65.1525 43.808C63.7872 40.992 63.1045 37.7493 63.1045 34.08ZM89.8565 34.144C89.8565 31.4133 89.0885 29.2587 87.5525 27.68C86.0592 26.1013 84.2245 25.312 82.0485 25.312C79.8725 25.312 78.0165 26.1013 76.4805 27.68C74.9872 29.216 74.2405 31.3493 74.2405 34.08C74.2405 36.8107 74.9872 38.9867 76.4805 40.608C78.0165 42.1867 79.8725 42.976 82.0485 42.976C84.2245 42.976 86.0592 42.1867 87.5525 40.608C89.0885 39.0293 89.8565 36.8747 89.8565 34.144ZM108.158 52.192C107.438 52.192 106.846 51.984 106.382 51.568C105.934 51.136 105.71 50.608 105.71 49.984C105.71 49.344 105.934 48.808 106.382 48.376C106.846 47.944 107.438 47.728 108.158 47.728C108.862 47.728 109.438 47.944 109.886 48.376C110.35 48.808 110.582 49.344 110.582 49.984C110.582 50.608 110.35 51.136 109.886 51.568C109.438 51.984 108.862 52.192 108.158 52.192ZM118.099 38.416C119.043 38.416 119.867 38.608 120.571 38.992C121.291 39.376 121.843 39.88 122.227 40.504V38.608H126.331V51.976C126.331 53.208 126.083 54.32 125.587 55.312C125.107 56.32 124.363 57.12 123.355 57.712C122.363 58.304 121.123 58.6 119.635 58.6C117.651 58.6 116.043 58.128 114.811 57.184C113.579 56.256 112.875 54.992 112.699 53.392H116.755C116.883 53.904 117.187 54.304 117.667 54.592C118.147 54.896 118.739 55.048 119.443 55.048C120.291 55.048 120.963 54.8 121.459 54.304C121.971 53.824 122.227 53.048 122.227 51.976V50.08C121.827 50.704 121.275 51.216 120.571 51.616C119.867 52 119.043 52.192 118.099 52.192C116.995 52.192 115.995 51.912 115.099 51.352C114.203 50.776 113.491 49.968 112.963 48.928C112.451 47.872 112.195 46.656 112.195 45.28C112.195 43.904 112.451 42.696 112.963 41.656C113.491 40.616 114.203 39.816 115.099 39.256C115.995 38.696 116.995 38.416 118.099 38.416ZM122.227 45.304C122.227 44.28 121.939 43.472 121.363 42.88C120.803 42.288 120.115 41.992 119.299 41.992C118.483 41.992 117.787 42.288 117.211 42.88C116.651 43.456 116.371 44.256 116.371 45.28C116.371 46.304 116.651 47.12 117.211 47.728C117.787 48.32 118.483 48.616 119.299 48.616C120.115 48.616 120.803 48.32 121.363 47.728C121.939 47.136 122.227 46.328 122.227 45.304ZM133.405 40.84C133.885 40.104 134.485 39.528 135.205 39.112C135.925 38.68 136.725 38.464 137.605 38.464V42.808H136.477C135.453 42.808 134.685 43.032 134.173 43.48C133.661 43.912 133.405 44.68 133.405 45.784V52H129.301V38.608H133.405V40.84ZM145.662 52.192C144.35 52.192 143.166 51.912 142.11 51.352C141.07 50.792 140.246 49.992 139.638 48.952C139.046 47.912 138.75 46.696 138.75 45.304C138.75 43.928 139.054 42.72 139.662 41.68C140.27 40.624 141.102 39.816 142.158 39.256C143.214 38.696 144.398 38.416 145.71 38.416C147.022 38.416 148.206 38.696 149.262 39.256C150.318 39.816 151.15 40.624 151.758 41.68C152.366 42.72 152.67 43.928 152.67 45.304C152.67 46.68 152.358 47.896 151.734 48.952C151.126 49.992 150.286 50.792 149.214 51.352C148.158 51.912 146.974 52.192 145.662 52.192ZM145.662 48.64C146.446 48.64 147.11 48.352 147.654 47.776C148.214 47.2 148.494 46.376 148.494 45.304C148.494 44.232 148.222 43.408 147.678 42.832C147.15 42.256 146.494 41.968 145.71 41.968C144.91 41.968 144.246 42.256 143.718 42.832C143.19 43.392 142.926 44.216 142.926 45.304C142.926 46.376 143.182 47.2 143.694 47.776C144.222 48.352 144.878 48.64 145.662 48.64ZM168.071 38.608V52H163.967V50.176C163.551 50.768 162.983 51.248 162.263 51.616C161.559 51.968 160.775 52.144 159.911 52.144C158.887 52.144 157.983 51.92 157.199 51.472C156.415 51.008 155.807 50.344 155.375 49.48C154.943 48.616 154.727 47.6 154.727 46.432V38.608H158.807V45.88C158.807 46.776 159.039 47.472 159.503 47.968C159.967 48.464 160.591 48.712 161.375 48.712C162.175 48.712 162.807 48.464 163.271 47.968C163.735 47.472 163.967 46.776 163.967 45.88V38.608H168.071ZM175.123 40.504C175.523 39.88 176.075 39.376 176.779 38.992C177.483 38.608 178.307 38.416 179.251 38.416C180.355 38.416 181.355 38.696 182.251 39.256C183.147 39.816 183.851 40.616 184.363 41.656C184.891 42.696 185.155 43.904 185.155 45.28C185.155 46.656 184.891 47.872 184.363 48.928C183.851 49.968 183.147 50.776 182.251 51.352C181.355 51.912 180.355 52.192 179.251 52.192C178.323 52.192 177.499 52 176.779 51.616C176.075 51.232 175.523 50.736 175.123 50.128V58.384H171.019V38.608H175.123V40.504ZM180.979 45.28C180.979 44.256 180.691 43.456 180.115 42.88C179.555 42.288 178.859 41.992 178.027 41.992C177.211 41.992 176.515 42.288 175.939 42.88C175.379 43.472 175.099 44.28 175.099 45.304C175.099 46.328 175.379 47.136 175.939 47.728C176.515 48.32 177.211 48.616 178.027 48.616C178.843 48.616 179.539 48.32 180.115 47.728C180.691 47.12 180.979 46.304 180.979 45.28Z" fill="#0E0E0E"/>
</svg>
